# xmcd
#
# Track frame offsets:
# 150
# 19175
# 35475
# 56175
# 77362
# 93500
# 114725
# 136062
# 159137
#
# Disc length: 2481 seconds
#
#
# Revision: 0
# Processed by: cddbd v1.5.2PL0 Copyright (c) Steve Scherf et al.
# Submitted via: Nero 7, 11, 10, 0 
#
DISCID=6709af09
DTITLE=Cal Green - White Pearl
DYEAR=1988
DGENRE=Blues
TTITLE0=What Makes Your Pretty Head So Hard
TTITLE1=You Don't Know How It Feels
TTITLE2=Big Leg Woman
TTITLE3=Greasy Spoon
TTITLE4=White Pearl
TTITLE5=24 Hours A Day
TTITLE6=Back Where It Used To Be
TTITLE7=Just Want To Make Love To You
TTITLE8=Mister Silk
EXTD=
EXTT0=What Makes Your Pretty Head So Hard
EXTT1=You Don't Know How It Feels
EXTT2=Big Leg Woman
EXTT3=Greasy Spoon
EXTT4=White Pearl
EXTT5=24 Hours A Day
EXTT6=Back Where It Used To Be
EXTT7=Just Want To Make Love To You
EXTT8=Mister Silk
PLAYORDER=
